# xmcd
#
# Track frame offsets:
#	150
#	18294
#	33301
#	46784
#	58999
#	73704
#	93809
#	112656
#	131001
#	156750
#	175763
#	192369
#	218042
# 
# Disc length: 3176 seconds
# 
# Revision: 47
# Processed by: cddbd v1.5.1PL0 Copyright (c) Steve Scherf et al.
# Submitted via: Advanced CD Ripper Pro
#
DISCID=a60c660d
DTITLE=Finch - Whar It Is To Burn
DYEAR=2002
DGENRE=Rock
TTITLE0=New Beginnings
TTITLE1=Letters To You
TTITLE2=Post Script
TTITLE3=Grey Matter
TTITLE4=Perfection Through Silence
TTITLE5=awake
TTITLE6=Without You Here
TTITLE7=Stay With Me
TTITLE8=Project Mayhem
TTITLE9={untilted}
TTITLE10=Three Simple Words
TTITLE11=Ender
TTITLE12=What It Is To Burn
EXTD=YEAR: 1999
EXTT0=
EXTT1=
EXTT2=
EXTT3=
EXTT4=
EXTT5=
EXTT6=
EXTT7=
EXTT8=
EXTT9=
EXTT10=
EXTT11=
EXTT12=
PLAYORDER=
